<?xml version="1.0" standalone="no"?>
<!DOCTYPE svg PUBLIC "-//W3C//DTD SVG 20010904//EN"
 "http://www.w3.org/TR/2001/REC-SVG-20010904/DTD/svg10.dtd">
<svg version="1.0" xmlns="http://www.w3.org/2000/svg"
 width="60.000000pt" height="70.000000pt" viewBox="0 0 60.000000 70.000000"
 preserveAspectRatio="xMidYMid meet">
<metadata>
Created by potrace 1.16, written by Peter Selinger 2001-2019
</metadata>
<g transform="translate(0.000000,70.000000) scale(0.100000,-0.100000)"
fill="#000000" stroke="none">
<path d="M233 589 c-79 -14 -116 -51 -109 -107 6 -57 71 -92 132 -72 62 21 53
90 -11 90 -36 0 -47 -13 -20 -24 19 -7 20 -45 1 -52 -20 -8 -59 15 -52 31 3 8
0 15 -6 17 -7 3 -9 12 -4 24 4 10 8 21 8 24 5 22 39 33 113 38 74 4 85 3 85
-12 0 -9 6 -16 14 -16 22 0 66 -40 66 -60 0 -26 -28 -45 -69 -45 -33 0 -36 -2
-39 -33 -2 -19 4 -44 12 -57 20 -30 14 -113 -10 -150 -23 -36 -48 -47 -88 -39
-26 4 -36 12 -41 32 -5 21 -8 23 -16 11 -8 -12 -13 -10 -29 10 -18 21 -27 51
-15 51 2 0 15 -11 29 -25 16 -16 36 -25 56 -25 25 0 33 6 44 31 7 18 11 40 8
51 -7 27 -53 56 -99 64 -37 6 -42 4 -67 -28 -56 -75 -21 -158 88 -205 37 -17
67 -16 114 2 46 19 67 53 77 124 4 33 14 59 26 69 10 9 19 24 19 34 0 19 -15
24 -25 8 -10 -16 -42 -12 -49 6 -11 28 -7 31 41 38 80 11 102 50 63 113 -11
18 -17 39 -14 48 5 11 -1 15 -21 15 -14 0 -35 4 -45 10 -25 13 -116 18 -167 9z
m-13 -284 c21 -14 42 -54 35 -65 -10 -16 -41 -12 -56 7 -11 13 -11 17 -1 20
19 7 14 23 -8 23 -11 0 -20 -5 -20 -12 0 -6 -3 -9 -6 -6 -9 10 15 46 28 44 7
-1 20 -6 28 -11z"/>
</g>
</svg>
