<?xml version="1.0" standalone="no"?>
<!DOCTYPE svg PUBLIC "-//W3C//DTD SVG 20010904//EN"
 "http://www.w3.org/TR/2001/REC-SVG-20010904/DTD/svg10.dtd">
<svg version="1.0" xmlns="http://www.w3.org/2000/svg"
 width="88.000000pt" height="68.000000pt" viewBox="0 0 88.000000 68.000000"
 preserveAspectRatio="xMidYMid meet">
<metadata>
Created by potrace 1.16, written by Peter Selinger 2001-2019
</metadata>
<g transform="translate(0.000000,68.000000) scale(0.100000,-0.100000)"
fill="#000000" stroke="none">
<path d="M250 573 c-65 -6 -103 -27 -128 -72 -21 -37 -22 -42 -8 -75 8 -19 23
-39 34 -45 72 -39 170 39 117 93 -15 15 -54 31 -60 24 -13 -12 -13 -56 0 -72
19 -25 30 -14 15 14 -15 29 2 49 25 30 21 -17 19 -40 -6 -66 -18 -19 -25 -21
-50 -12 -35 12 -46 46 -29 89 17 39 37 49 120 56 l68 6 46 -48 c26 -26 45 -55
44 -64 -4 -24 -57 -53 -84 -47 -12 3 -26 1 -29 -5 -12 -18 4 -56 26 -62 16 -4
19 -11 16 -34 -9 -58 -34 -99 -70 -116 -46 -22 -51 -22 -82 7 -25 24 -26 25
-8 45 21 25 33 27 33 6 0 -13 4 -14 21 -5 20 11 20 12 3 31 -18 20 -59 25 -82
11 -7 -5 -15 -24 -18 -44 -5 -27 -1 -40 19 -63 22 -26 31 -29 79 -29 47 0 60
4 87 29 41 38 61 75 66 123 5 49 20 89 37 94 22 8 14 101 -11 135 -41 55 -97
74 -191 66z"/>
<path d="M675 319 c-22 -5 -68 -9 -103 -9 -66 0 -115 -18 -126 -45 -12 -31 -6
-84 11 -101 11 -11 18 -13 21 -5 2 6 8 11 13 11 6 0 7 -5 4 -10 -14 -23 26 -8
41 15 16 24 15 54 -1 98 -6 13 -2 17 18 17 27 0 30 -8 39 -89 3 -24 4 -24 21
-7 9 10 17 32 17 52 0 31 3 34 28 34 25 0 31 -6 40 -39 7 -21 12 -59 12 -84 0
-43 12 -68 24 -49 3 5 6 48 7 96 2 75 6 90 23 102 14 10 16 14 6 14 -8 0 -24
2 -35 4 -11 2 -38 0 -60 -5z m-147 -98 c-4 -32 -31 -49 -52 -32 -10 9 -12 18
-6 29 5 10 11 25 14 35 9 28 48 -1 44 -32z"/>
</g>
</svg>
