<?xml version="1.0" standalone="no"?>
<!DOCTYPE svg PUBLIC "-//W3C//DTD SVG 20010904//EN"
 "http://www.w3.org/TR/2001/REC-SVG-20010904/DTD/svg10.dtd">
<svg version="1.0" xmlns="http://www.w3.org/2000/svg"
 width="70.000000pt" height="50.000000pt" viewBox="0 0 70.000000 50.000000"
 preserveAspectRatio="xMidYMid meet">
<metadata>
Created by potrace 1.16, written by Peter Selinger 2001-2019
</metadata>
<g transform="translate(0.000000,50.000000) scale(0.100000,-0.100000)"
fill="#000000" stroke="none">
<path d="M350 389 c-192 -5 -250 -14 -250 -37 0 -8 28 -51 45 -68 17 -17 66
-41 103 -49 23 -5 40 -2 59 10 22 15 25 22 20 61 -4 36 -2 44 12 45 9 0 27 3
41 5 14 3 35 2 47 -1 19 -4 21 -11 20 -55 -1 -36 2 -54 13 -60 23 -15 30 -12
40 15 11 28 22 31 38 12 12 -14 6 -53 -10 -74 -11 -14 -105 -43 -140 -43 -12
0 -35 6 -50 14 -23 12 -29 12 -39 0 -10 -12 -9 -18 2 -29 17 -17 121 -35 163
-28 45 7 103 40 122 68 32 49 -7 137 -66 149 -23 4 -31 11 -28 23 2 14 15 19
51 21 46 3 63 16 30 23 -10 2 -110 1 -223 -2z m-70 -68 c0 -10 -6 -26 -14 -36
-11 -15 -19 -17 -46 -9 -34 9 -60 37 -47 50 9 10 79 21 95 16 6 -2 12 -12 12
-21z"/>
</g>
</svg>
