<?xml version="1.0" standalone="no"?>
<!DOCTYPE svg PUBLIC "-//W3C//DTD SVG 20010904//EN"
 "http://www.w3.org/TR/2001/REC-SVG-20010904/DTD/svg10.dtd">
<svg version="1.0" xmlns="http://www.w3.org/2000/svg"
 width="51.000000pt" height="65.000000pt" viewBox="0 0 51.000000 65.000000"
 preserveAspectRatio="xMidYMid meet">
<metadata>
Created by potrace 1.16, written by Peter Selinger 2001-2019
</metadata>
<g transform="translate(0.000000,65.000000) scale(0.100000,-0.100000)"
fill="#000000" stroke="none">
<path d="M115 517 c-3 -18 -7 -70 -8 -117 -2 -84 -2 -85 23 -88 24 -3 25 -3 5
12 -17 13 -17 15 -4 16 25 0 33 139 10 159 -12 10 -13 15 -3 18 16 6 15 20 -3
26 -10 4 -16 -3 -20 -26z"/>
<path d="M273 523 c-37 -7 -65 -64 -62 -125 3 -47 1 -53 -18 -56 -32 -5 -36
-27 -5 -30 23 -2 92 -56 92 -72 0 -3 -22 -20 -50 -38 -45 -29 -89 -86 -77 -99
8 -7 45 15 86 53 21 18 67 51 103 71 57 34 63 40 50 52 -13 12 -16 12 -27 -2
-10 -14 -15 -14 -39 -1 -36 18 -42 18 -25 -3 13 -15 12 -15 -8 -5 -32 18 -53
52 -47 78 3 12 1 25 -5 29 -6 3 -8 12 -4 18 4 6 9 27 13 47 7 44 36 51 69 16
21 -22 21 -27 10 -64 -9 -33 -18 -42 -40 -47 -40 -9 -36 -25 5 -25 50 0 86 46
86 109 0 37 -5 52 -22 68 -26 24 -53 32 -85 26z m81 -49 c9 -8 16 -21 16 -27
0 -8 -3 -8 -8 -2 -4 6 -15 18 -25 28 -10 9 -14 17 -8 17 5 0 17 -7 25 -16z"/>
</g>
</svg>
