<?xml version="1.0" standalone="no"?>
<!DOCTYPE svg PUBLIC "-//W3C//DTD SVG 20010904//EN"
 "http://www.w3.org/TR/2001/REC-SVG-20010904/DTD/svg10.dtd">
<svg version="1.0" xmlns="http://www.w3.org/2000/svg"
 width="79.000000pt" height="50.000000pt" viewBox="0 0 79.000000 50.000000"
 preserveAspectRatio="xMidYMid meet">
<metadata>
Created by potrace 1.16, written by Peter Selinger 2001-2019
</metadata>
<g transform="translate(0.000000,50.000000) scale(0.100000,-0.100000)"
fill="#000000" stroke="none">
<path d="M251 389 c-54 -9 -90 -29 -126 -69 -37 -41 -10 -165 41 -189 53 -24
138 -9 182 31 39 38 24 125 -26 148 -22 9 -30 8 -51 -8 -17 -13 -25 -28 -23
-43 4 -33 9 -35 41 -16 36 21 47 21 55 2 24 -63 -101 -114 -162 -67 -21 16
-23 24 -17 63 4 24 13 53 20 63 19 25 95 44 169 42 l59 -1 1 -77 c1 -42 4 -80
9 -84 14 -15 28 14 34 70 6 54 7 57 29 52 14 -4 24 -2 24 4 0 6 12 10 28 8 15
-2 26 -7 26 -13 -1 -5 -5 -54 -9 -107 -6 -87 -5 -98 10 -98 22 0 45 59 45 113
0 80 9 105 41 112 36 8 46 23 28 40 -10 10 -56 15 -149 19 -74 2 -155 7 -180
10 -25 2 -69 0 -99 -5z"/>
</g>
</svg>
