<?xml version="1.0" standalone="no"?>
<!DOCTYPE svg PUBLIC "-//W3C//DTD SVG 20010904//EN"
 "http://www.w3.org/TR/2001/REC-SVG-20010904/DTD/svg10.dtd">
<svg version="1.0" xmlns="http://www.w3.org/2000/svg"
 width="87.000000pt" height="60.000000pt" viewBox="0 0 87.000000 60.000000"
 preserveAspectRatio="xMidYMid meet">
<metadata>
Created by potrace 1.16, written by Peter Selinger 2001-2019
</metadata>
<g transform="translate(0.000000,60.000000) scale(0.100000,-0.100000)"
fill="#000000" stroke="none">
<path d="M176 482 c-41 -25 -67 -92 -73 -194 -9 -135 21 -180 121 -181 42 -1
56 4 79 25 57 54 49 138 -14 138 -39 0 -97 -25 -121 -52 -24 -28 -34 -16 -41
49 -7 60 -3 63 81 63 88 0 127 15 146 54 9 19 16 41 16 48 0 19 -32 48 -53 48
-9 0 -19 5 -22 10 -10 16 -87 11 -119 -8z m137 -36 c54 -50 26 -80 -75 -80
-91 -1 -107 16 -60 65 42 45 97 51 135 15z m-18 -236 c12 -37 -3 -57 -51 -69
-39 -10 -50 -9 -71 4 -20 13 -22 19 -12 31 6 8 17 14 23 14 7 0 29 9 51 20 22
11 42 20 46 20 4 0 11 -9 14 -20z"/>
<path d="M645 343 c-111 -15 -137 -22 -136 -35 1 -5 1 -48 1 -98 0 -74 3 -90
15 -90 23 0 37 48 33 112 l-3 56 44 6 c75 10 71 15 71 -84 0 -91 9 -110 31
-68 9 17 9 23 0 26 -9 3 -9 7 0 19 10 12 10 16 -2 24 -10 6 -10 9 -1 9 17 0
15 41 -4 68 -14 21 -14 22 8 22 43 0 68 12 68 31 0 11 -3 18 -7 18 -5 -1 -57
-8 -118 -16z m-118 -60 c-3 -10 -5 -4 -5 12 0 17 2 24 5 18 2 -7 2 -21 0 -30z
m4 -56 c-10 -9 -11 -8 -5 6 3 10 9 15 12 12 3 -3 0 -11 -7 -18z"/>
</g>
</svg>
