<?xml version="1.0" standalone="no"?>
<!DOCTYPE svg PUBLIC "-//W3C//DTD SVG 20010904//EN"
 "http://www.w3.org/TR/2001/REC-SVG-20010904/DTD/svg10.dtd">
<svg version="1.0" xmlns="http://www.w3.org/2000/svg"
 width="110.000000pt" height="51.000000pt" viewBox="0 0 110.000000 51.000000"
 preserveAspectRatio="xMidYMid meet">
<metadata>
Created by potrace 1.16, written by Peter Selinger 2001-2019
</metadata>
<g transform="translate(0.000000,51.000000) scale(0.100000,-0.100000)"
fill="#000000" stroke="none">
<path d="M265 406 c-5 -2 -22 -7 -37 -10 -40 -9 -64 -50 -50 -82 7 -13 23 -29
37 -34 29 -11 31 -31 14 -111 -9 -42 -9 -53 2 -60 8 -5 133 -7 284 -4 321 6
473 14 481 26 8 14 -6 69 -17 69 -6 0 -9 -8 -7 -17 3 -16 -7 -18 -79 -21 l-83
-3 0 35 c0 26 5 36 20 41 11 3 20 11 20 16 0 10 -4 11 -165 14 -147 4 -172 -6
-177 -69 l-3 -41 -106 -3 c-105 -3 -106 -3 -103 20 1 13 3 28 3 34 1 6 22 14
47 17 29 3 61 16 87 35 37 26 42 35 42 68 0 32 -5 41 -32 56 -29 18 -153 34
-178 24z m39 -58 c4 -16 0 -28 -15 -40 -27 -22 -43 -23 -65 -1 -15 16 -15 18
12 40 37 29 60 29 68 1z m100 13 c23 -9 24 -12 13 -42 -14 -38 -60 -69 -101
-69 l-30 0 33 34 c26 26 32 41 29 60 -6 29 11 34 56 17z m254 -160 c3 -36 1
-41 -18 -41 -16 0 -20 4 -16 16 12 31 -3 54 -35 54 -16 0 -29 -4 -29 -10 0 -5
9 -10 21 -10 15 0 20 -5 17 -22 -4 -27 -26 -34 -52 -15 -15 11 -17 19 -9 43 7
23 17 30 44 35 56 9 74 -2 77 -50z m104 17 c3 -7 2 -23 0 -35 -3 -19 -11 -23
-39 -23 -29 0 -33 3 -31 23 2 12 7 28 11 35 10 16 54 16 59 0z"/>
<path d="M240 330 c0 -5 5 -10 11 -10 5 0 7 5 4 10 -3 6 -8 10 -11 10 -2 0 -4
-4 -4 -10z"/>
<path d="M105 310 c-3 -5 -1 -10 4 -10 6 0 11 5 11 10 0 6 -2 10 -4 10 -3 0
-8 -4 -11 -10z"/>
</g>
</svg>
