<?xml version="1.0" standalone="no"?>
<!DOCTYPE svg PUBLIC "-//W3C//DTD SVG 20010904//EN"
 "http://www.w3.org/TR/2001/REC-SVG-20010904/DTD/svg10.dtd">
<svg version="1.0" xmlns="http://www.w3.org/2000/svg"
 width="78.000000pt" height="46.000000pt" viewBox="0 0 78.000000 46.000000"
 preserveAspectRatio="xMidYMid meet">
<metadata>
Created by potrace 1.16, written by Peter Selinger 2001-2019
</metadata>
<g transform="translate(0.000000,46.000000) scale(0.100000,-0.100000)"
fill="#000000" stroke="none">
<path d="M547 354 c-2 -2 -46 -7 -98 -9 -273 -13 -300 -20 -328 -78 -29 -59
-27 -93 6 -123 37 -34 83 -30 101 9 l13 28 20 -26 c25 -31 64 -33 96 -3 21 20
24 20 41 5 34 -31 61 -22 83 29 11 25 19 59 17 77 -2 27 1 33 20 35 31 5 36
-16 20 -95 -8 -37 -12 -76 -10 -85 4 -19 22 -25 22 -8 0 6 10 10 21 10 21 0
21 3 14 95 l-7 95 25 0 c36 0 77 17 77 32 0 9 -20 14 -64 15 -35 1 -66 0 -69
-3z m-283 -53 c3 -5 -1 -15 -10 -22 -13 -10 -17 -10 -24 1 -6 9 -4 17 3 22 16
10 25 10 31 -1z m116 -6 c0 -8 -6 -15 -14 -15 -8 0 -16 7 -20 15 -4 10 1 15
14 15 11 0 20 -7 20 -15z m78 -47 c2 -28 -2 -40 -19 -52 -41 -28 -63 13 -37
69 18 40 52 30 56 -17z m-117 -18 c4 -25 2 -53 -3 -62 -19 -39 -70 -7 -62 40
11 67 14 73 37 70 18 -2 23 -11 28 -48z m-127 2 c17 -61 -28 -107 -73 -75 -25
17 -27 33 -6 33 8 0 15 6 15 14 0 8 5 27 10 41 14 36 42 29 54 -13z"/>
</g>
</svg>
