<?xml version="1.0" standalone="no"?>
<!DOCTYPE svg PUBLIC "-//W3C//DTD SVG 20010904//EN"
 "http://www.w3.org/TR/2001/REC-SVG-20010904/DTD/svg10.dtd">
<svg version="1.0" xmlns="http://www.w3.org/2000/svg"
 width="61.000000pt" height="69.000000pt" viewBox="0 0 61.000000 69.000000"
 preserveAspectRatio="xMidYMid meet">
<metadata>
Created by potrace 1.16, written by Peter Selinger 2001-2019
</metadata>
<g transform="translate(0.000000,69.000000) scale(0.100000,-0.100000)"
fill="#000000" stroke="none">
<path d="M279 580 c-76 -13 -135 -52 -163 -107 -29 -57 -2 -101 70 -117 25 -6
35 -2 57 20 31 30 31 34 16 68 -22 47 -74 43 -81 -5 -4 -29 13 -41 27 -19 10
17 25 11 25 -10 0 -24 -62 -39 -85 -20 -18 15 -13 73 7 97 37 45 181 61 240
27 35 -21 70 -77 61 -100 -3 -8 -29 -16 -65 -20 -50 -6 -62 -11 -70 -30 -9
-19 -8 -28 7 -44 10 -11 26 -20 36 -20 28 0 31 -16 15 -74 -13 -44 -23 -58
-48 -70 -57 -29 -118 -19 -118 19 0 53 26 75 32 28 l4 -28 13 30 c16 38 4 59
-36 63 -26 3 -33 -2 -47 -31 -23 -49 -20 -78 9 -110 21 -22 35 -27 71 -27 107
0 164 73 164 213 0 49 3 57 19 57 11 0 31 13 44 30 46 54 17 117 -73 162 -59
29 -61 30 -131 18z m115 -234 c-3 -8 -12 -12 -20 -9 -21 8 -17 23 6 23 13 0
18 -5 14 -14z"/>
</g>
</svg>
