<?xml version="1.0" standalone="no"?>
<!DOCTYPE svg PUBLIC "-//W3C//DTD SVG 20010904//EN"
 "http://www.w3.org/TR/2001/REC-SVG-20010904/DTD/svg10.dtd">
<svg version="1.0" xmlns="http://www.w3.org/2000/svg"
 width="59.000000pt" height="50.000000pt" viewBox="0 0 59.000000 50.000000"
 preserveAspectRatio="xMidYMid meet">
<metadata>
Created by potrace 1.16, written by Peter Selinger 2001-2019
</metadata>
<g transform="translate(0.000000,50.000000) scale(0.100000,-0.100000)"
fill="#000000" stroke="none">
<path d="M168 393 c-37 -4 -60 -22 -65 -52 -7 -44 -4 -224 4 -232 4 -4 14 -4
22 0 9 6 14 37 16 107 1 55 7 110 14 122 11 21 18 23 84 20 l72 -3 1 -110 c1
-138 2 -145 13 -145 16 0 30 61 35 150 3 47 5 88 5 93 1 4 21 7 46 7 38 0 45
3 45 20 0 11 -3 20 -7 21 -38 3 -256 5 -285 2z"/>
<path d="M224 255 c-16 -24 -16 -27 1 -45 26 -29 57 -10 53 33 -4 41 -31 47
-54 12z"/>
<path d="M426 238 c-11 -15 -12 -26 -5 -40 16 -30 54 -20 60 17 8 45 -29 60
-55 23z"/>
</g>
</svg>
