<?xml version="1.0" standalone="no"?>
<!DOCTYPE svg PUBLIC "-//W3C//DTD SVG 20010904//EN"
 "http://www.w3.org/TR/2001/REC-SVG-20010904/DTD/svg10.dtd">
<svg version="1.0" xmlns="http://www.w3.org/2000/svg"
 width="49.000000pt" height="47.000000pt" viewBox="0 0 49.000000 47.000000"
 preserveAspectRatio="xMidYMid meet">
<metadata>
Created by potrace 1.16, written by Peter Selinger 2001-2019
</metadata>
<g transform="translate(0.000000,47.000000) scale(0.100000,-0.100000)"
fill="#000000" stroke="none">
<path d="M142 371 c-7 -4 -17 -43 -22 -87 -6 -43 -13 -93 -16 -109 -4 -23 0
-35 18 -52 21 -19 33 -21 120 -20 86 2 100 5 120 24 31 32 28 78 -8 112 -61
60 -104 45 -121 -39 -6 -31 -14 -46 -27 -48 -31 -6 -37 13 -37 116 1 100 -4
118 -27 103z m181 -145 c24 -19 22 -55 -5 -65 -31 -12 -38 -6 -38 33 0 47 11
56 43 32z"/>
</g>
</svg>
