<?xml version="1.0" standalone="no"?>
<!DOCTYPE svg PUBLIC "-//W3C//DTD SVG 20010904//EN"
 "http://www.w3.org/TR/2001/REC-SVG-20010904/DTD/svg10.dtd">
<svg version="1.0" xmlns="http://www.w3.org/2000/svg"
 width="64.000000pt" height="45.000000pt" viewBox="0 0 64.000000 45.000000"
 preserveAspectRatio="xMidYMid meet">
<metadata>
Created by potrace 1.16, written by Peter Selinger 2001-2019
</metadata>
<g transform="translate(0.000000,45.000000) scale(0.100000,-0.100000)"
fill="#000000" stroke="none">
<path d="M505 337 c-3 -10 -13 -111 -14 -154 -1 -7 -10 -13 -20 -13 -11 0 -23
-4 -26 -10 -3 -5 -13 -10 -21 -10 -12 0 -13 4 -3 21 14 28 -5 99 -26 99 -8 0
-14 5 -13 12 2 7 -13 21 -32 31 -80 41 -225 -15 -241 -93 -6 -29 -3 -41 17
-68 55 -72 161 -13 152 85 -2 26 1 38 10 37 6 -1 23 -2 37 -2 14 -1 34 -11 46
-23 19 -19 22 -45 10 -118 -1 -2 -17 -1 -36 2 -19 3 -37 1 -40 -4 -4 -5 -15
-9 -26 -9 -10 0 -19 -5 -19 -11 0 -7 10 -9 26 -5 14 4 74 9 132 11 l107 5 6
27 c4 16 7 65 8 109 1 65 -2 83 -14 88 -9 3 -18 0 -20 -7z m-271 -63 c12 -31
6 -82 -14 -106 -10 -14 -17 -27 -15 -30 3 -3 -2 -5 -10 -5 -8 0 -15 4 -15 8 0
5 -7 6 -15 3 -9 -4 -15 0 -16 7 0 8 -2 22 -4 32 -2 10 5 23 16 30 10 6 19 21
19 32 0 39 42 61 54 29z m173 -46 c-3 -8 -6 -5 -6 6 -1 11 2 17 5 13 3 -3 4
-12 1 -19z"/>
</g>
</svg>
