<?xml version="1.0" standalone="no"?>
<!DOCTYPE svg PUBLIC "-//W3C//DTD SVG 20010904//EN"
 "http://www.w3.org/TR/2001/REC-SVG-20010904/DTD/svg10.dtd">
<svg version="1.0" xmlns="http://www.w3.org/2000/svg"
 width="54.000000pt" height="51.000000pt" viewBox="0 0 54.000000 51.000000"
 preserveAspectRatio="xMidYMid meet">
<metadata>
Created by potrace 1.16, written by Peter Selinger 2001-2019
</metadata>
<g transform="translate(0.000000,51.000000) scale(0.100000,-0.100000)"
fill="#000000" stroke="none">
<path d="M182 396 l-82 -9 4 -81 c2 -52 8 -82 16 -84 18 -6 30 17 30 58 0 51
10 78 28 82 34 9 42 -3 42 -63 0 -52 2 -59 20 -59 13 0 20 7 20 20 0 28 24 25
39 -4 18 -32 7 -46 -34 -46 -57 0 -133 -20 -139 -37 -10 -26 21 -61 60 -69 49
-9 105 10 137 46 15 17 37 30 50 30 44 0 55 20 62 111 6 73 4 87 -9 92 -34 13
-42 -1 -41 -81 0 -64 -3 -77 -17 -80 -12 -2 -20 7 -28 36 -8 31 -17 43 -40 51
-41 14 -40 45 2 60 64 23 -10 39 -120 27z m18 -235 c0 -12 -29 -23 -42 -15 -6
4 -5 10 3 15 18 11 39 11 39 0z m74 -6 c-7 -16 -49 -21 -58 -6 -8 13 5 21 35
21 21 0 27 -4 23 -15z"/>
</g>
</svg>
