<?xml version="1.0" standalone="no"?>
<!DOCTYPE svg PUBLIC "-//W3C//DTD SVG 20010904//EN"
 "http://www.w3.org/TR/2001/REC-SVG-20010904/DTD/svg10.dtd">
<svg version="1.0" xmlns="http://www.w3.org/2000/svg"
 width="64.000000pt" height="48.000000pt" viewBox="0 0 64.000000 48.000000"
 preserveAspectRatio="xMidYMid meet">
<metadata>
Created by potrace 1.16, written by Peter Selinger 2001-2019
</metadata>
<g transform="translate(0.000000,48.000000) scale(0.100000,-0.100000)"
fill="#000000" stroke="none">
<path d="M369 376 c-2 -2 -40 -6 -84 -9 -106 -7 -147 -25 -173 -74 -18 -33
-15 -88 6 -106 35 -32 101 -14 122 31 l12 26 16 -21 c22 -28 61 -43 88 -32 29
10 48 67 35 102 -9 22 -7 27 10 32 11 4 24 4 27 0 4 -4 7 -55 7 -113 0 -95 2
-107 18 -110 16 -3 18 2 12 55 -3 32 -2 85 2 118 8 59 9 60 41 63 38 4 38 23
1 33 -27 8 -133 11 -140 5z m-19 -78 c51 -55 -7 -121 -60 -68 -16 16 -18 24
-9 47 18 47 39 53 69 21z m-140 -37 c0 -52 -44 -69 -61 -24 -8 22 -6 30 12 49
27 28 49 17 49 -25z"/>
</g>
</svg>
