<?xml version="1.0" standalone="no"?>
<!DOCTYPE svg PUBLIC "-//W3C//DTD SVG 20010904//EN"
 "http://www.w3.org/TR/2001/REC-SVG-20010904/DTD/svg10.dtd">
<svg version="1.0" xmlns="http://www.w3.org/2000/svg"
 width="63.000000pt" height="67.000000pt" viewBox="0 0 63.000000 67.000000"
 preserveAspectRatio="xMidYMid meet">
<metadata>
Created by potrace 1.16, written by Peter Selinger 2001-2019
</metadata>
<g transform="translate(0.000000,67.000000) scale(0.100000,-0.100000)"
fill="#000000" stroke="none">
<path d="M268 559 c-13 -7 -18 -22 -18 -50 0 -31 -5 -42 -23 -50 -39 -18 -49
-44 -33 -84 8 -19 16 -35 18 -35 2 0 21 -7 43 -14 l40 -14 -50 -21 c-102 -42
-126 -67 -140 -144 -7 -33 -6 -35 30 -41 52 -10 91 24 45 39 -56 18 18 94 123
126 34 10 69 19 78 19 9 0 22 6 28 14 7 8 25 17 40 21 53 11 99 83 78 121 -18
33 -33 42 -68 46 -49 4 -46 32 4 36 29 3 37 7 37 23 0 18 -8 19 -107 19 -60 0
-116 -5 -125 -11z m101 -43 c14 -17 8 -22 -42 -31 -32 -6 -37 -5 -37 12 0 11
3 23 7 26 12 12 60 7 72 -7z m8 -98 c-5 -46 -25 -69 -61 -73 -34 -4 -39 6 -31
58 6 40 10 45 43 54 49 12 54 8 49 -39z m97 26 c35 -34 13 -68 -61 -97 -48
-19 -52 -16 -23 20 11 14 22 40 26 59 7 38 31 45 58 18z m-229 -53 c3 -5 1
-12 -4 -15 -5 -3 -11 1 -15 9 -6 16 9 21 19 6z"/>
</g>
</svg>
