<?xml version="1.0" standalone="no"?>
<!DOCTYPE svg PUBLIC "-//W3C//DTD SVG 20010904//EN"
 "http://www.w3.org/TR/2001/REC-SVG-20010904/DTD/svg10.dtd">
<svg version="1.0" xmlns="http://www.w3.org/2000/svg"
 width="58.000000pt" height="44.000000pt" viewBox="0 0 58.000000 44.000000"
 preserveAspectRatio="xMidYMid meet">
<metadata>
Created by potrace 1.16, written by Peter Selinger 2001-2019
</metadata>
<g transform="translate(0.000000,44.000000) scale(0.100000,-0.100000)"
fill="#000000" stroke="none">
<path d="M253 333 c-6 -5 -13 -33 -15 -63 l-3 -55 -65 -5 c-58 -4 -65 -7 -68
-27 -2 -17 5 -28 30 -42 18 -11 38 -25 45 -30 7 -6 46 -11 88 -11 83 0 115 18
115 64 0 20 7 26 33 31 58 12 67 16 67 33 0 12 -3 13 -12 4 -16 -16 -88 -16
-89 1 -5 54 -3 61 20 67 42 10 37 30 -7 30 -21 0 -59 2 -83 5 -24 3 -49 2 -56
-2z m89 -68 c5 -41 -11 -60 -42 -50 -16 5 -20 15 -20 46 0 36 2 39 29 39 26 0
29 -4 33 -35z m-2 -98 c0 -31 -86 -55 -131 -37 -16 7 -29 16 -29 20 0 14 52
21 66 9 12 -10 18 -9 32 4 19 20 62 23 62 4z"/>
</g>
</svg>
