<?xml version="1.0" standalone="no"?>
<!DOCTYPE svg PUBLIC "-//W3C//DTD SVG 20010904//EN"
 "http://www.w3.org/TR/2001/REC-SVG-20010904/DTD/svg10.dtd">
<svg version="1.0" xmlns="http://www.w3.org/2000/svg"
 width="54.000000pt" height="63.000000pt" viewBox="0 0 54.000000 63.000000"
 preserveAspectRatio="xMidYMid meet">
<metadata>
Created by potrace 1.16, written by Peter Selinger 2001-2019
</metadata>
<g transform="translate(0.000000,63.000000) scale(0.100000,-0.100000)"
fill="#000000" stroke="none">
<path d="M187 504 c-34 -31 -47 -62 -49 -115 -2 -45 -2 -44 33 -53 l27 -6 -2
61 c-1 48 3 64 16 72 28 18 48 -8 48 -64 0 -42 3 -49 20 -49 15 0 21 9 26 39
5 32 11 41 32 46 16 4 28 2 30 -4 2 -6 9 -11 16 -11 20 0 7 -56 -20 -85 -13
-14 -34 -25 -49 -25 -51 0 -122 -31 -159 -69 -44 -45 -63 -108 -41 -130 17
-17 15 -18 38 31 21 47 81 91 160 118 34 11 69 26 78 33 47 36 68 147 37 197
-15 25 -24 30 -57 30 -22 0 -43 -4 -46 -10 -9 -15 -41 -12 -55 5 -19 23 -52
18 -83 -11z"/>
</g>
</svg>
