<?xml version="1.0" standalone="no"?>
<!DOCTYPE svg PUBLIC "-//W3C//DTD SVG 20010904//EN"
 "http://www.w3.org/TR/2001/REC-SVG-20010904/DTD/svg10.dtd">
<svg version="1.0" xmlns="http://www.w3.org/2000/svg"
 width="49.000000pt" height="65.000000pt" viewBox="0 0 49.000000 65.000000"
 preserveAspectRatio="xMidYMid meet">
<metadata>
Created by potrace 1.16, written by Peter Selinger 2001-2019
</metadata>
<g transform="translate(0.000000,65.000000) scale(0.100000,-0.100000)"
fill="#000000" stroke="none">
<path d="M209 522 c-39 -25 -51 -40 -69 -89 -12 -32 -23 -84 -24 -115 0 -32
-4 -58 -8 -58 -13 0 -9 -73 5 -99 21 -41 62 -64 109 -63 27 1 48 8 55 18 19
26 6 34 -35 20 -44 -16 -74 -7 -98 29 -13 20 -15 39 -11 93 7 80 24 163 35
174 5 5 30 4 55 -2 87 -19 166 17 167 77 0 28 -4 30 -75 38 -55 6 -64 4 -106
-23z m108 -13 c24 -8 30 -15 26 -30 -5 -16 -14 -19 -74 -19 -39 0 -69 4 -69
10 0 6 6 10 14 10 8 0 18 9 21 20 7 23 35 26 82 9z"/>
<path d="M216 260 c-43 -13 -67 -40 -60 -64 10 -31 11 -31 43 3 50 54 107 38
102 -28 -1 -24 2 -41 8 -41 12 0 41 52 41 73 0 44 -74 76 -134 57z"/>
</g>
</svg>
