<?xml version="1.0" standalone="no"?>
<!DOCTYPE svg PUBLIC "-//W3C//DTD SVG 20010904//EN"
 "http://www.w3.org/TR/2001/REC-SVG-20010904/DTD/svg10.dtd">
<svg version="1.0" xmlns="http://www.w3.org/2000/svg"
 width="50.000000pt" height="42.000000pt" viewBox="0 0 50.000000 42.000000"
 preserveAspectRatio="xMidYMid meet">
<metadata>
Created by potrace 1.16, written by Peter Selinger 2001-2019
</metadata>
<g transform="translate(0.000000,42.000000) scale(0.100000,-0.100000)"
fill="#000000" stroke="none">
<path d="M172 288 c-46 -35 -65 -77 -64 -140 1 -47 4 -52 30 -44 15 5 21 19
25 59 7 54 33 100 61 105 12 3 16 -4 16 -32 0 -29 5 -38 30 -51 75 -39 149 9
115 75 -20 39 -63 60 -123 60 -39 0 -56 -6 -90 -32z m160 -34 l32 -17 -22 -17
c-20 -16 -62 -17 -62 -1 0 3 -3 16 -6 29 -8 27 13 29 58 6z"/>
</g>
</svg>
