<?xml version="1.0" standalone="no"?>
<!DOCTYPE svg PUBLIC "-//W3C//DTD SVG 20010904//EN"
 "http://www.w3.org/TR/2001/REC-SVG-20010904/DTD/svg10.dtd">
<svg version="1.0" xmlns="http://www.w3.org/2000/svg"
 width="70.000000pt" height="45.000000pt" viewBox="0 0 70.000000 45.000000"
 preserveAspectRatio="xMidYMid meet">
<metadata>
Created by potrace 1.16, written by Peter Selinger 2001-2019
</metadata>
<g transform="translate(0.000000,45.000000) scale(0.100000,-0.100000)"
fill="#000000" stroke="none">
<path d="M245 341 c-86 -22 -136 -75 -137 -146 -1 -56 14 -75 62 -75 40 0 78
30 64 51 -5 8 -3 10 6 4 10 -6 12 2 7 40 -4 26 -12 54 -18 62 -17 20 -7 25 63
35 50 7 65 5 77 -7 14 -13 13 -15 -2 -15 -27 0 -57 -37 -57 -71 0 -37 33 -96
58 -103 60 -17 80 -16 103 3 13 10 20 23 16 28 -5 4 -15 -1 -23 -11 -11 -16
-14 -17 -14 -4 0 19 24 30 45 22 9 -4 15 0 16 10 1 9 2 22 3 29 1 6 -4 22 -12
34 -9 15 -10 23 -2 28 8 5 4 15 -11 31 l-22 24 30 0 c49 0 68 -31 68 -110 0
-65 9 -99 19 -69 3 8 7 47 10 87 3 51 1 72 -7 72 -7 0 -17 10 -22 22 -8 18
-19 22 -55 23 -25 1 -57 -2 -71 -6 -15 -4 -31 -3 -36 2 -12 12 -120 19 -158
10z m-35 -46 c0 -9 -6 -12 -15 -9 -8 4 -12 10 -9 15 8 14 24 10 24 -6z m240
-5 c11 -11 20 -31 20 -44 0 -14 4 -36 9 -49 8 -21 7 -24 -8 -20 -10 2 -23 -3
-30 -11 -8 -9 -23 -16 -35 -16 -27 0 -66 27 -66 46 0 8 -4 14 -10 14 -5 0 -10
5 -10 11 0 5 5 7 10 4 7 -4 8 3 4 21 -4 16 -3 25 3 21 5 -3 22 5 39 18 36 30
48 31 74 5z m-239 -62 c18 -28 -26 -96 -55 -85 -18 7 -30 58 -21 96 6 29 6 29
38 13 18 -8 35 -19 38 -24z"/>
<path d="M680 10 c-9 -6 -10 -10 -3 -10 6 0 15 5 18 10 8 12 4 12 -15 0z"/>
</g>
</svg>
