<?xml version="1.0" standalone="no"?>
<!DOCTYPE svg PUBLIC "-//W3C//DTD SVG 20010904//EN"
 "http://www.w3.org/TR/2001/REC-SVG-20010904/DTD/svg10.dtd">
<svg version="1.0" xmlns="http://www.w3.org/2000/svg"
 width="55.000000pt" height="45.000000pt" viewBox="0 0 55.000000 45.000000"
 preserveAspectRatio="xMidYMid meet">
<metadata>
Created by potrace 1.16, written by Peter Selinger 2001-2019
</metadata>
<g transform="translate(0.000000,45.000000) scale(0.100000,-0.100000)"
fill="#000000" stroke="none">
<path d="M205 342 c-71 -6 -78 -11 -71 -43 4 -21 1 -31 -9 -36 -12 -4 -13 -8
-3 -20 9 -11 8 -20 -6 -44 -17 -29 -17 -29 13 -59 27 -28 34 -30 76 -24 30 4
51 2 61 -6 31 -27 167 22 178 63 8 31 -24 59 -76 66 -38 5 -43 9 -45 33 -2 30
19 48 56 48 31 0 26 17 -6 24 -27 5 -104 5 -168 -2z m69 -38 c20 -8 22 -64 2
-64 -7 0 -34 -3 -60 -6 l-46 -7 0 36 c0 35 1 36 43 40 23 2 43 4 44 5 1 1 8
-1 17 -4z m6 -112 c0 -20 -56 -52 -90 -52 -15 0 -20 7 -20 25 0 30 23 44 73
45 29 0 37 -4 37 -18z m111 8 c5 -41 2 -46 -38 -60 -23 -8 -45 -11 -49 -8 -3
4 0 23 7 42 11 31 17 36 46 36 18 0 34 -4 34 -10z"/>
</g>
</svg>
