<?xml version="1.0" standalone="no"?>
<!DOCTYPE svg PUBLIC "-//W3C//DTD SVG 20010904//EN"
 "http://www.w3.org/TR/2001/REC-SVG-20010904/DTD/svg10.dtd">
<svg version="1.0" xmlns="http://www.w3.org/2000/svg"
 width="98.000000pt" height="69.000000pt" viewBox="0 0 98.000000 69.000000"
 preserveAspectRatio="xMidYMid meet">
<metadata>
Created by potrace 1.16, written by Peter Selinger 2001-2019
</metadata>
<g transform="translate(0.000000,69.000000) scale(0.100000,-0.100000)"
fill="#000000" stroke="none">
<path d="M422 579 c-35 -13 -53 -36 -62 -74 -7 -29 -4 -36 16 -50 34 -22 91
-20 104 4 15 29 13 38 -17 66 -31 28 -18 33 26 11 48 -25 114 -128 94 -147 -4
-4 -64 -9 -133 -10 -216 -4 -350 -42 -350 -100 0 -96 37 -138 142 -164 78 -19
208 -16 265 6 76 29 132 105 133 179 0 19 4 40 8 46 9 12 154 36 163 26 4 -4
4 -41 0 -82 -8 -101 -6 -112 27 -108 26 3 27 6 33 73 4 39 7 112 8 163 1 73
-2 92 -13 92 -8 0 -22 3 -31 6 -12 5 -16 1 -14 -17 1 -13 1 -38 1 -55 -2 -31
-3 -32 -77 -43 -106 -15 -115 -15 -115 10 0 50 -82 151 -132 163 -14 3 -32 8
-40 10 -7 3 -23 1 -36 -5z m8 -75 c0 -13 6 -24 13 -24 8 0 8 -3 -2 -9 -8 -5
-20 -7 -27 -4 -16 6 -24 49 -11 62 15 15 27 4 27 -25z m170 -194 c0 -53 -37
-109 -93 -141 -36 -20 -54 -24 -128 -22 -155 2 -240 42 -224 106 13 50 43 66
140 73 50 3 119 9 155 13 36 5 84 9 108 10 l42 1 0 -40z"/>
</g>
</svg>
