<?xml version="1.0" standalone="no"?>
<!DOCTYPE svg PUBLIC "-//W3C//DTD SVG 20010904//EN"
 "http://www.w3.org/TR/2001/REC-SVG-20010904/DTD/svg10.dtd">
<svg version="1.0" xmlns="http://www.w3.org/2000/svg"
 width="115.000000pt" height="58.000000pt" viewBox="0 0 115.000000 58.000000"
 preserveAspectRatio="xMidYMid meet">
<metadata>
Created by potrace 1.16, written by Peter Selinger 2001-2019
</metadata>
<g transform="translate(0.000000,58.000000) scale(0.100000,-0.100000)"
fill="#000000" stroke="none">
<path d="M244 462 c-54 -23 -73 -39 -109 -91 -25 -37 -29 -53 -30 -110 0 -123
27 -160 105 -142 50 11 60 23 60 72 0 36 -29 79 -54 79 -26 0 -58 -38 -51 -59
8 -26 22 -27 30 -2 9 31 47 15 43 -18 -3 -23 -7 -26 -43 -26 -40 0 -40 0 -49
48 -6 32 -6 54 2 70 6 12 13 35 17 51 17 79 130 129 216 95 41 -16 62 -97 54
-207 -4 -53 -2 -93 4 -102 18 -26 35 6 37 69 1 33 5 74 9 91 4 18 1 58 -6 89
-10 48 -18 61 -48 81 -47 31 -130 37 -187 12z m223 -144 c-3 -8 -6 -5 -6 6 -1
11 2 17 5 13 3 -3 4 -12 1 -19z"/>
<path d="M895 325 c-172 -33 -193 -41 -215 -78 -22 -36 -26 -107 -8 -125 21
-21 65 -14 87 14 26 33 26 54 1 87 -31 39 -26 49 23 45 l42 -3 3 -52 c2 -38 7
-53 18 -53 14 0 19 23 15 69 -1 13 6 32 15 42 19 21 69 25 80 7 5 -7 8 -48 9
-92 0 -52 4 -81 12 -83 16 -6 25 47 21 122 -3 56 -2 59 22 65 18 4 25 13 25
30 0 32 -7 32 -150 5z m-164 -115 c23 -13 26 -58 3 -67 -25 -9 -54 27 -43 55
10 25 13 26 40 12z"/>
</g>
</svg>
