<?xml version="1.0" standalone="no"?>
<!DOCTYPE svg PUBLIC "-//W3C//DTD SVG 20010904//EN"
 "http://www.w3.org/TR/2001/REC-SVG-20010904/DTD/svg10.dtd">
<svg version="1.0" xmlns="http://www.w3.org/2000/svg"
 width="63.000000pt" height="63.000000pt" viewBox="0 0 63.000000 63.000000"
 preserveAspectRatio="xMidYMid meet">
<metadata>
Created by potrace 1.16, written by Peter Selinger 2001-2019
</metadata>
<g transform="translate(0.000000,63.000000) scale(0.100000,-0.100000)"
fill="#000000" stroke="none">
<path d="M459 526 c-2 -2 -33 -6 -69 -9 -218 -20 -293 -54 -292 -136 1 -77 27
-99 121 -102 72 -3 98 15 107 72 4 26 0 43 -20 72 l-25 37 47 1 c52 1 85 -1
91 -7 2 -1 0 -37 -4 -78 l-7 -75 -73 -63 c-40 -35 -88 -75 -106 -90 -28 -22
-31 -29 -19 -37 27 -18 71 2 133 60 34 33 67 59 74 59 7 0 13 5 13 12 0 6 7
19 15 28 9 10 17 51 22 110 8 89 9 94 33 100 23 5 26 11 22 40 -2 9 -54 15
-63 6z m-203 -133 c-1 -67 -16 -77 -72 -47 -63 34 -32 102 47 104 26 0 26 -2
25 -57z"/>
</g>
</svg>
