<?xml version="1.0" standalone="no"?>
<!DOCTYPE svg PUBLIC "-//W3C//DTD SVG 20010904//EN"
 "http://www.w3.org/TR/2001/REC-SVG-20010904/DTD/svg10.dtd">
<svg version="1.0" xmlns="http://www.w3.org/2000/svg"
 width="98.000000pt" height="76.000000pt" viewBox="0 0 98.000000 76.000000"
 preserveAspectRatio="xMidYMid meet">
<metadata>
Created by potrace 1.16, written by Peter Selinger 2001-2019
</metadata>
<g transform="translate(0.000000,76.000000) scale(0.100000,-0.100000)"
fill="#000000" stroke="none">
<path d="M372 644 c-70 -29 -80 -134 -13 -134 16 0 39 8 51 18 20 16 21 21 9
40 -17 27 -29 28 -29 2 0 -11 -7 -20 -15 -20 -8 0 -15 6 -15 14 0 19 26 38 47
34 20 -4 63 -73 63 -104 0 -21 -4 -21 -132 -20 -123 1 -137 -1 -183 -24 l-50
-25 1 -49 c0 -44 4 -53 37 -82 50 -42 109 -58 205 -52 116 7 159 43 169 144 3
30 11 54 17 54 6 1 42 3 80 6 l69 6 -6 -101 c-4 -80 -2 -101 8 -101 17 0 26
28 34 100 6 53 7 55 35 55 47 0 71 -42 71 -124 0 -71 -19 -117 -53 -127 -9 -3
-25 -10 -34 -15 -28 -15 -72 -10 -90 9 -9 9 -24 23 -32 30 -8 6 -13 19 -10 27
8 19 24 19 24 0 0 -8 5 -15 10 -15 16 0 23 27 16 65 -6 28 -11 35 -31 35 -32
0 -55 -35 -55 -86 0 -35 5 -47 35 -73 31 -27 43 -31 92 -31 61 0 137 29 152
58 5 10 14 42 20 72 9 45 8 66 -4 115 -20 74 -36 92 -91 101 -40 6 -44 9 -44
34 0 35 -27 61 -41 39 -5 -8 -9 -19 -9 -25 0 -13 -54 -24 -118 -24 -29 0 -42
4 -41 13 7 36 -15 98 -46 130 -41 42 -63 48 -103 31z m91 -223 c8 -31 -11
-113 -30 -127 -61 -44 -249 -17 -288 42 -14 22 -14 27 0 54 9 18 26 32 43 36
15 3 32 7 37 9 6 2 60 4 121 4 102 1 112 -1 117 -18z m157 -181 c0 -5 -2 -10
-4 -10 -3 0 -8 5 -11 10 -3 6 -1 10 4 10 6 0 11 -4 11 -10z"/>
</g>
</svg>
