<?xml version="1.0" standalone="no"?>
<!DOCTYPE svg PUBLIC "-//W3C//DTD SVG 20010904//EN"
 "http://www.w3.org/TR/2001/REC-SVG-20010904/DTD/svg10.dtd">
<svg version="1.0" xmlns="http://www.w3.org/2000/svg"
 width="63.000000pt" height="71.000000pt" viewBox="0 0 63.000000 71.000000"
 preserveAspectRatio="xMidYMid meet">
<metadata>
Created by potrace 1.16, written by Peter Selinger 2001-2019
</metadata>
<g transform="translate(0.000000,71.000000) scale(0.100000,-0.100000)"
fill="#000000" stroke="none">
<path d="M325 605 c-5 -2 -23 -6 -39 -10 -16 -3 -46 -24 -67 -45 -38 -38 -39
-41 -39 -110 0 -43 7 -91 19 -124 l19 -54 -42 -12 c-75 -22 -93 -55 -59 -108
27 -41 33 -43 113 -36 69 6 93 7 174 3 40 -2 66 30 59 74 -2 17 -8 36 -13 40
-4 5 -6 35 -3 67 10 107 -15 155 -87 166 -39 7 -70 -37 -70 -99 0 -42 2 -46
30 -52 34 -7 55 5 66 37 8 27 -21 57 -49 51 -21 -5 -21 -5 -5 12 40 42 108
-41 90 -109 -5 -17 -14 -31 -20 -30 -7 1 -39 2 -71 3 -53 1 -62 4 -79 29 -11
15 -22 54 -26 88 l-7 61 47 57 c37 46 50 56 67 51 63 -17 103 -37 115 -56 23
-37 42 -127 42 -199 0 -63 11 -92 28 -75 12 11 7 217 -6 260 -6 22 -22 52 -35
66 -35 41 -111 68 -152 54z m36 -263 c-19 -6 -41 6 -41 23 0 14 3 13 26 -2 15
-9 21 -19 15 -21z m-4 -18 c-3 -3 -12 -4 -19 -1 -8 3 -5 6 6 6 11 1 17 -2 13
-5z m11 -102 c-6 -28 -33 -36 -56 -17 -27 24 -20 33 23 32 25 -1 35 -5 33 -15z
m-104 -22 c35 -38 27 -51 -44 -69 -55 -14 -68 -10 -75 27 -4 22 12 40 54 59
36 16 33 16 65 -17z m166 -16 c0 -16 -23 -44 -35 -44 -18 0 -20 21 -3 38 12
12 38 17 38 6z"/>
</g>
</svg>
