<?xml version="1.0" standalone="no"?>
<!DOCTYPE svg PUBLIC "-//W3C//DTD SVG 20010904//EN"
 "http://www.w3.org/TR/2001/REC-SVG-20010904/DTD/svg10.dtd">
<svg version="1.0" xmlns="http://www.w3.org/2000/svg"
 width="64.000000pt" height="57.000000pt" viewBox="0 0 64.000000 57.000000"
 preserveAspectRatio="xMidYMid meet">
<metadata>
Created by potrace 1.16, written by Peter Selinger 2001-2019
</metadata>
<g transform="translate(0.000000,57.000000) scale(0.100000,-0.100000)"
fill="#000000" stroke="none">
<path d="M264 444 c-16 -13 -24 -23 -17 -24 7 0 11 -21 12 -60 0 -66 5 -80 27
-80 8 0 15 11 16 28 1 15 2 34 4 42 1 8 2 30 3 48 1 29 4 32 31 32 l30 0 -3
-70 c-4 -67 -3 -70 18 -70 18 0 24 7 29 35 6 29 11 35 31 35 48 0 59 -85 12
-94 -12 -3 -69 -7 -127 -10 -183 -9 -241 -41 -225 -123 5 -28 10 -34 28 -31
15 2 23 11 25 28 8 54 49 74 177 85 148 12 190 27 201 72 9 35 -8 78 -29 77
-9 -1 -17 4 -17 12 0 10 -13 14 -40 14 -33 0 -40 3 -40 20 0 16 8 19 57 22 46
2 58 7 61 21 3 17 -6 18 -116 16 -109 -1 -122 -3 -148 -25z"/>
</g>
</svg>
