<?xml version="1.0" standalone="no"?>
<!DOCTYPE svg PUBLIC "-//W3C//DTD SVG 20010904//EN"
 "http://www.w3.org/TR/2001/REC-SVG-20010904/DTD/svg10.dtd">
<svg version="1.0" xmlns="http://www.w3.org/2000/svg"
 width="98.000000pt" height="54.000000pt" viewBox="0 0 98.000000 54.000000"
 preserveAspectRatio="xMidYMid meet">
<metadata>
Created by potrace 1.16, written by Peter Selinger 2001-2019
</metadata>
<g transform="translate(0.000000,54.000000) scale(0.100000,-0.100000)"
fill="#000000" stroke="none">
<path d="M243 433 c-7 -2 -13 -11 -13 -18 0 -7 -7 -16 -16 -19 -14 -5 -15 -4
-4 9 9 11 9 15 1 15 -6 0 -14 -7 -17 -15 -4 -8 -10 -12 -15 -9 -5 3 -9 0 -9
-6 0 -21 30 -21 65 0 45 28 103 21 153 -17 33 -25 34 -26 32 -97 -5 -127 -2
-146 19 -146 15 0 19 11 25 61 13 127 4 176 -38 211 -24 20 -41 24 -30 6 5 -8
0 -9 -17 -4 -13 4 -29 8 -36 10 -31 6 -24 18 7 12 26 -4 30 -3 15 3 -26 12
-98 14 -91 2 3 -5 -1 -11 -9 -14 -9 -4 -12 -1 -8 9 5 15 5 15 -14 7z m199
-213 c3 -16 1 -30 -4 -30 -4 0 -8 14 -8 30 0 17 2 30 4 30 2 0 6 -13 8 -30z"/>
<path d="M127 335 c-20 -41 -21 -49 -7 -40 6 3 10 -1 10 -9 0 -26 15 -18 27
13 8 23 8 28 -2 25 -9 -4 -11 3 -8 20 7 36 0 32 -20 -9z"/>
<path d="M170 350 c0 -5 7 -7 15 -4 8 4 15 8 15 10 0 2 -7 4 -15 4 -8 0 -15
-4 -15 -10z"/>
<path d="M663 302 c-3 -7 -6 -48 -7 -90 -1 -73 0 -77 21 -78 28 -2 35 19 34
92 l0 54 50 0 51 0 -7 -81 c-7 -76 -6 -81 11 -77 16 3 19 14 22 86 3 74 5 82
22 82 11 0 20 5 20 10 0 12 -2 12 -35 0 -15 -6 -32 -7 -38 -3 -7 4 -3 10 13
14 14 4 -13 7 -64 6 -65 0 -89 -4 -93 -15z m27 -24 c0 -19 -2 -20 -10 -8 -13
19 -13 30 0 30 6 0 10 -10 10 -22z m10 -75 c0 -5 -5 -15 -10 -23 -7 -12 -9
-10 -7 8 1 19 17 33 17 15z"/>
<path d="M197 272 c-22 -24 -22 -62 -1 -62 9 0 18 9 21 20 8 32 40 25 47 -10
13 -68 -33 -111 -89 -83 -41 21 -39 18 -45 80 -7 76 -30 84 -30 11 0 -57 16
-86 60 -109 49 -25 79 -22 116 15 40 40 45 83 13 127 -24 34 -67 39 -92 11z
m83 -14 c0 -6 -6 -5 -15 2 -8 7 -15 14 -15 16 0 2 7 1 15 -2 8 -4 15 -11 15
-16z m20 -74 c0 -8 -5 -12 -10 -9 -6 4 -8 11 -5 16 9 14 15 11 15 -7z"/>
</g>
</svg>
