<?xml version="1.0" standalone="no"?>
<!DOCTYPE svg PUBLIC "-//W3C//DTD SVG 20010904//EN"
 "http://www.w3.org/TR/2001/REC-SVG-20010904/DTD/svg10.dtd">
<svg version="1.0" xmlns="http://www.w3.org/2000/svg"
 width="35.000000pt" height="38.000000pt" viewBox="0 0 35.000000 38.000000"
 preserveAspectRatio="xMidYMid meet">
<metadata>
Created by potrace 1.16, written by Peter Selinger 2001-2019
</metadata>
<g transform="translate(0.000000,38.000000) scale(0.100000,-0.100000)"
fill="#000000" stroke="none">
<path d="M146 259 c-15 -12 -32 -33 -37 -46 -12 -31 0 -103 17 -110 23 -9 63
6 96 36 27 24 31 34 30 71 -1 24 -7 49 -13 56 -17 21 -63 17 -93 -7z m67 -57
c-10 -27 -45 -62 -63 -62 -12 0 -18 8 -18 28 0 36 14 61 41 72 26 10 49 -12
40 -38z"/>
</g>
</svg>
