<?xml version="1.0" standalone="no"?>
<!DOCTYPE svg PUBLIC "-//W3C//DTD SVG 20010904//EN"
 "http://www.w3.org/TR/2001/REC-SVG-20010904/DTD/svg10.dtd">
<svg version="1.0" xmlns="http://www.w3.org/2000/svg"
 width="53.000000pt" height="41.000000pt" viewBox="0 0 53.000000 41.000000"
 preserveAspectRatio="xMidYMid meet">
<metadata>
Created by potrace 1.16, written by Peter Selinger 2001-2019
</metadata>
<g transform="translate(0.000000,41.000000) scale(0.100000,-0.100000)"
fill="#000000" stroke="none">
<path d="M313 293 c-3 -10 -8 -22 -10 -26 -3 -4 6 -5 20 -2 46 12 77 -74 39
-108 -39 -36 -67 -14 -80 64 -9 53 -24 51 -37 -3 -15 -65 -27 -80 -61 -76 -28
3 -29 4 -27 58 2 72 -5 100 -27 100 -15 0 -18 -13 -24 -87 -6 -66 -4 -88 6
-94 7 -5 53 -9 103 -9 50 -1 106 -1 125 -1 19 -1 47 4 63 10 25 10 27 15 27
66 0 30 -4 55 -10 55 -5 0 -12 11 -16 25 -11 43 -78 63 -91 28z"/>
</g>
</svg>
