<?xml version="1.0" standalone="no"?>
<!DOCTYPE svg PUBLIC "-//W3C//DTD SVG 20010904//EN"
 "http://www.w3.org/TR/2001/REC-SVG-20010904/DTD/svg10.dtd">
<svg version="1.0" xmlns="http://www.w3.org/2000/svg"
 width="39.000000pt" height="50.000000pt" viewBox="0 0 39.000000 50.000000"
 preserveAspectRatio="xMidYMid meet">
<metadata>
Created by potrace 1.16, written by Peter Selinger 2001-2019
</metadata>
<g transform="translate(0.000000,50.000000) scale(0.100000,-0.100000)"
fill="#000000" stroke="none">
<path d="M173 393 c-24 -5 -73 -57 -73 -78 0 -7 6 -18 14 -24 11 -9 17 -6 30
14 12 19 25 25 51 25 42 0 45 -8 49 -133 1 -48 6 -87 9 -88 24 -2 30 15 35
102 5 113 -7 165 -45 180 -25 9 -32 9 -70 2z"/>
</g>
</svg>
