<?xml version="1.0" standalone="no"?>
<!DOCTYPE svg PUBLIC "-//W3C//DTD SVG 20010904//EN"
 "http://www.w3.org/TR/2001/REC-SVG-20010904/DTD/svg10.dtd">
<svg version="1.0" xmlns="http://www.w3.org/2000/svg"
 width="60.000000pt" height="58.000000pt" viewBox="0 0 60.000000 58.000000"
 preserveAspectRatio="xMidYMid meet">
<metadata>
Created by potrace 1.16, written by Peter Selinger 2001-2019
</metadata>
<g transform="translate(0.000000,58.000000) scale(0.100000,-0.100000)"
fill="#000000" stroke="none">
<path d="M178 464 c-62 -33 -98 -110 -66 -142 7 -7 31 -12 55 -12 37 0 44 4
58 30 15 28 15 34 0 62 -8 17 -15 33 -15 35 0 2 21 3 48 1 l47 -3 1 -48 c2
-49 14 -74 32 -63 5 3 10 18 10 33 0 15 5 29 11 31 6 2 9 8 5 13 -3 5 1 9 10
9 8 0 16 6 19 13 3 9 11 9 32 -3 89 -48 41 -103 -116 -136 -40 -8 -98 -27
-128 -42 -47 -23 -57 -32 -62 -59 -3 -18 -1 -42 5 -55 11 -22 17 -23 146 -25
104 -2 143 1 171 13 56 24 77 85 41 117 -20 18 -62 23 -62 8 0 -5 10 -15 22
-23 20 -13 21 -18 10 -42 -10 -23 -17 -26 -67 -26 l-55 0 0 36 c0 28 -3 35
-17 32 -10 -2 -20 -14 -21 -28 -5 -32 -22 -52 -38 -46 -7 3 -16 1 -19 -3 -2
-5 -19 -6 -37 -2 -26 5 -33 12 -33 31 0 26 -8 22 214 101 76 27 121 62 121 93
0 81 -67 130 -131 95 -16 -8 -26 -7 -44 5 -30 20 -110 19 -147 0z m25 -87 c10
-25 -12 -42 -50 -38 -7 0 -13 10 -13 20 0 29 53 44 63 18z"/>
</g>
</svg>
