<?xml version="1.0" standalone="no"?>
<!DOCTYPE svg PUBLIC "-//W3C//DTD SVG 20010904//EN"
 "http://www.w3.org/TR/2001/REC-SVG-20010904/DTD/svg10.dtd">
<svg version="1.0" xmlns="http://www.w3.org/2000/svg"
 width="59.000000pt" height="56.000000pt" viewBox="0 0 59.000000 56.000000"
 preserveAspectRatio="xMidYMid meet">
<metadata>
Created by potrace 1.16, written by Peter Selinger 2001-2019
</metadata>
<g transform="translate(0.000000,56.000000) scale(0.100000,-0.100000)"
fill="#000000" stroke="none">
<path d="M238 453 c-13 -3 -18 -15 -18 -43 0 -55 -26 -183 -45 -219 -12 -24
-22 -31 -45 -31 -25 0 -30 -4 -30 -25 0 -41 33 -42 320 -16 61 6 65 8 65 31
l0 25 -118 -4 -118 -3 6 53 c4 30 11 78 16 108 5 30 9 72 9 93 0 38 -4 41 -42
31z"/>
</g>
</svg>
