<?xml version="1.0" standalone="no"?>
<!DOCTYPE svg PUBLIC "-//W3C//DTD SVG 20010904//EN"
 "http://www.w3.org/TR/2001/REC-SVG-20010904/DTD/svg10.dtd">
<svg version="1.0" xmlns="http://www.w3.org/2000/svg"
 width="84.000000pt" height="52.000000pt" viewBox="0 0 84.000000 52.000000"
 preserveAspectRatio="xMidYMid meet">
<metadata>
Created by potrace 1.16, written by Peter Selinger 2001-2019
</metadata>
<g transform="translate(0.000000,52.000000) scale(0.100000,-0.100000)"
fill="#000000" stroke="none">
<path d="M203 399 c-37 -18 -43 -25 -43 -54 0 -38 16 -54 62 -61 47 -8 80 20
80 68 0 26 5 37 17 41 23 6 88 -21 95 -39 6 -16 -7 -48 -32 -76 -18 -21 -88
-25 -94 -6 -9 27 -31 -39 -29 -86 4 -88 -9 -84 240 -82 121 0 222 3 224 6 3 3
9 18 13 34 6 26 5 28 -12 20 -22 -10 -366 -18 -401 -9 -18 4 -23 12 -23 35 0
24 5 31 28 36 54 12 64 16 82 34 47 47 50 79 13 120 -25 27 -35 31 -103 35
-63 5 -82 2 -117 -16z m75 -47 c4 -24 -21 -51 -46 -52 -15 0 -35 48 -27 67 3
9 17 13 37 11 26 -2 34 -8 36 -26z"/>
</g>
</svg>
