<?xml version="1.0" standalone="no"?>
<!DOCTYPE svg PUBLIC "-//W3C//DTD SVG 20010904//EN"
 "http://www.w3.org/TR/2001/REC-SVG-20010904/DTD/svg10.dtd">
<svg version="1.0" xmlns="http://www.w3.org/2000/svg"
 width="59.000000pt" height="43.000000pt" viewBox="0 0 59.000000 43.000000"
 preserveAspectRatio="xMidYMid meet">
<metadata>
Created by potrace 1.16, written by Peter Selinger 2001-2019
</metadata>
<g transform="translate(0.000000,43.000000) scale(0.100000,-0.100000)"
fill="#000000" stroke="none">
<path d="M345 302 c-27 -17 -34 -17 -79 -4 -67 20 -116 4 -144 -47 -25 -44
-28 -67 -18 -106 9 -36 21 -45 63 -45 24 0 44 10 72 35 l39 35 35 -35 c55 -55
130 -48 162 16 19 36 14 109 -10 145 -19 30 -76 33 -120 6z m25 -11 c0 -5 10
-11 22 -13 25 -4 61 -62 53 -87 -10 -31 -49 -61 -72 -55 -36 10 -56 100 -33
145 11 20 30 26 30 10z m-154 -39 c6 -4 14 -19 17 -34 5 -20 1 -34 -19 -57
-29 -35 -59 -40 -74 -12 -13 25 -13 71 0 71 6 0 10 -7 10 -16 0 -8 5 -12 10
-9 6 3 10 16 10 29 0 34 20 46 46 28z"/>
</g>
</svg>
