<?xml version="1.0" standalone="no"?>
<!DOCTYPE svg PUBLIC "-//W3C//DTD SVG 20010904//EN"
 "http://www.w3.org/TR/2001/REC-SVG-20010904/DTD/svg10.dtd">
<svg version="1.0" xmlns="http://www.w3.org/2000/svg"
 width="69.000000pt" height="65.000000pt" viewBox="0 0 69.000000 65.000000"
 preserveAspectRatio="xMidYMid meet">
<metadata>
Created by potrace 1.16, written by Peter Selinger 2001-2019
</metadata>
<g transform="translate(0.000000,65.000000) scale(0.100000,-0.100000)"
fill="#000000" stroke="none">
<path d="M385 540 c-11 -5 -41 -26 -67 -48 -42 -35 -53 -40 -118 -45 -73 -6
-100 -18 -100 -44 0 -11 9 -13 38 -9 20 3 58 8 83 12 l47 6 -5 -46 c-10 -84
27 -128 92 -112 40 10 65 42 65 83 0 29 -8 43 -40 74 -42 40 -42 43 17 73 68
34 122 11 142 -61 17 -59 13 -105 -13 -153 -32 -61 -78 -92 -136 -90 -62 2
-64 2 -51 -13 7 -9 7 -17 1 -23 -7 -7 -4 -16 9 -28 26 -24 51 -17 127 33 82
52 106 101 108 216 1 70 -2 88 -20 112 -46 62 -120 88 -179 63z m-23 -167 c34
-31 14 -89 -29 -81 -18 3 -36 60 -26 85 7 18 33 16 55 -4z"/>
</g>
</svg>
