<?xml version="1.0" standalone="no"?>
<!DOCTYPE svg PUBLIC "-//W3C//DTD SVG 20010904//EN"
 "http://www.w3.org/TR/2001/REC-SVG-20010904/DTD/svg10.dtd">
<svg version="1.0" xmlns="http://www.w3.org/2000/svg"
 width="45.000000pt" height="40.000000pt" viewBox="0 0 45.000000 40.000000"
 preserveAspectRatio="xMidYMid meet">
<metadata>
Created by potrace 1.16, written by Peter Selinger 2001-2019
</metadata>
<g transform="translate(0.000000,40.000000) scale(0.100000,-0.100000)"
fill="#000000" stroke="none">
<path d="M115 291 c-10 -18 -7 -162 4 -175 9 -11 36 -14 111 -12 55 1 103 6
107 10 10 10 17 130 9 161 -4 17 -13 25 -29 25 -21 0 -22 -3 -19 -80 l4 -80
-71 0 c-50 0 -71 4 -72 13 0 6 -1 30 0 52 0 22 -2 50 -4 61 -5 23 -31 39 -40
25z"/>
</g>
</svg>
